# xmcd
#
# Track frame offsets:
#	150
#	11893
#	27023
#	38131
#	50180
#	59574
#	70355
#	85908
#	100186
#	114088
#	126152
#	137899
#	149175
#	161505
#	171684
#	180560
#	196203
#	210055
#	223800
#	235317
#
# Disc length: 3307 seconds
#
# Revision: 0
# Processed by: cddbd v1.5.2PL0 Copyright (c) Steve Scherf et al.
# Submitted via: audiograbber 1.83.01
#
DISCID=2f0ce914
DTITLE=CARLOS ALMENAR OTERO - VIAJANDO POR EL MUNDO
DYEAR=2007
DGENRE=Ballad
TTITLE0=ANDALUCIA
TTITLE1=LAMENTO GITANO
TTITLE2=ADIOS GRANADA
TTITLE3=TRISTEZA MORUNA
TTITLE4=LA MORENA DE MI COPLA
TTITLE5=ME QUIERE Y LO NIEGAS
TTITLE6=CESAR GIRON
TTITLE7=AVE MARIA NO MORRO
TTITLE8=CAMINANDO Y RECORDANDO
TTITLE9=GUADALAJARA
TTITLE10=CANCION MIXTECA
TTITLE11=A LA ORILLA DE UN PALMAR
TTITLE12=JANITZIO
TTITLE13=ISLA ENCANTADA
TTITLE14=LA VIDA CASTIGA
TTITLE15=LAMENTO BORINCANO
TTITLE16=PRECIOSA
TTITLE17=ROMANCE ORIENTAL
TTITLE18=NO TE OLVIDARE
TTITLE19=VENEZUELA
EXTD=FUNDACION INTERNACIONAL JOSE GUILLERMO CARRILLO
EXTT0=Autor: Ernesto Lecuona
EXTT1=Autora: María Grever
EXTT2=Autores: Barrera and Callejas
EXTT3=Autores: Hans Blum and Carlos Almenar Otero
EXTT4=Autores: Carlos Castellanos and Joffre 
EXTT5=Autor: Carlos Almenar Otero
EXTT6=Autor: Alfredo Sadel
EXTT7=Autor: Erivelto Martins
EXTT8=Autores: Conny Sheffel and Carlos Almenar Otero
EXTT9=Autor: José (Pepe) Guizar
EXTT10=Autor: José López Alaves
EXTT11=Autor: Manuel Ponce
EXTT12=Autor: Agustin Lara
EXTT13=Autor: Carlos Almenar Otero
EXTT14=Autor: M. Alvarez Maciste
EXTT15=Autor: Rafael Hernóndez
EXTT16=Autor: Rafael Hernóndez
EXTT17=Autor: Carlos Almenar Otero
EXTT18=Autores: Sandmann and Carlos Almenar Otero
EXTT19=Autor: Carlos Almenar Otero
PLAYORDER=
